<svg width="64" height="64" viewBox="0 0 64 64" fill="none" xmlns="http://www.w3.org/2000/svg">
  <rect width="64" height="64" rx="16" fill="#2563EB"/>
  <path d="M18 45.5L28.5 19.5C29.1 18 30.55 17 32.15 17H34.2L45.8 45.5H38.4L35.85 38.7H25.9L23.4 45.5H18Z" fill="white"/>
  <path d="M28.15 32.7H33.65L30.9 25.1L28.15 32.7Z" fill="#2563EB"/>
  <path d="M42.5 17.5C45.54 17.5 48 19.96 48 23C48 26.04 45.54 28.5 42.5 28.5C39.46 28.5 37 26.04 37 23C37 19.96 39.46 17.5 42.5 17.5Z" fill="#93C5FD"/>
  <path d="M46.4 27.2L48.7 31.1L43.9 28.3L46.4 27.2Z" fill="#93C5FD"/>
</svg>
